<svg width="36" height="36" viewBox="0 0 36 36" fill="none" xmlns="http://www.w3.org/2000/svg">
<rect width="36" height="36" rx="18" fill="#DA1A1F"/>
<path d="M22.6668 13.3335L13.3335 22.6668" stroke="white" stroke-width="1.4" stroke-linecap="round" stroke-linejoin="round"/>
<path d="M14.3332 15.9998C15.2536 15.9998 15.9998 15.2536 15.9998 14.3332C15.9998 13.4127 15.2536 12.6665 14.3332 12.6665C13.4127 12.6665 12.6665 13.4127 12.6665 14.3332C12.6665 15.2536 13.4127 15.9998 14.3332 15.9998Z" stroke="white" stroke-width="1.4" stroke-linecap="round" stroke-linejoin="round"/>
<path d="M21.6667 23.3333C22.5871 23.3333 23.3333 22.5871 23.3333 21.6667C23.3333 20.7462 22.5871 20 21.6667 20C20.7462 20 20 20.7462 20 21.6667C20 22.5871 20.7462 23.3333 21.6667 23.3333Z" stroke="white" stroke-width="1.4" stroke-linecap="round" stroke-linejoin="round"/>
</svg>
